<?xml version="1.0" encoding="UTF-8" standalone="no"?>
<!-- Created with Inkscape (http://www.inkscape.org/) -->

<svg
   inkscape:version="1.2.1 (9c6d41e410, 2022-07-14)"
   sodipodi:docname="mono-planned.svg"
   id="svg8"
   version="1.1"
   viewBox="0 0 74.715363 46.563999"
   height="46.563999mm"
   width="74.715363mm"
   xmlns:inkscape="http://www.inkscape.org/namespaces/inkscape"
   xmlns:sodipodi="http://sodipodi.sourceforge.net/DTD/sodipodi-0.dtd"
   xmlns="http://www.w3.org/2000/svg"
   xmlns:svg="http://www.w3.org/2000/svg"
   xmlns:rdf="http://www.w3.org/1999/02/22-rdf-syntax-ns#"
   xmlns:cc="http://creativecommons.org/ns#"
   xmlns:dc="http://purl.org/dc/elements/1.1/">
  <defs
     id="defs2" />
  <sodipodi:namedview
     id="base"
     pagecolor="#ffffff"
     bordercolor="#666666"
     borderopacity="1.0"
     inkscape:pageopacity="0"
     inkscape:pageshadow="2"
     inkscape:zoom="6.12"
     inkscape:cx="151.96078"
     inkscape:cy="110.45752"
     inkscape:document-units="mm"
     inkscape:current-layer="layer1"
     showgrid="false"
     inkscape:pagecheckerboard="true"
     inkscape:window-width="3360"
     inkscape:window-height="1369"
     inkscape:window-x="1752"
     inkscape:window-y="-8"
     inkscape:window-maximized="1"
     inkscape:showpageshadow="0"
     inkscape:deskcolor="#d1d1d1" />
  <metadata
     id="metadata5">
    <rdf:RDF>
      <cc:Work
         rdf:about="">
        <dc:format>image/svg+xml</dc:format>
        <dc:type
           rdf:resource="http://purl.org/dc/dcmitype/StillImage" />
      </cc:Work>
    </rdf:RDF>
  </metadata>
  <g
     inkscape:label="Layer 1"
     inkscape:groupmode="layer"
     id="layer1"
     transform="translate(-3.0668326,-4.5562451)">
	<!-- Right Block -->
    <path
       style="fill:#ffff00;stroke-width:0.26333"
       d="m 69.02043,5.4207918 c 0.0272,0.024314 0.05225,0.049365 0.07493,0.074931 0.185233,0.2087602 0.277503,0.4383347 0.277503,0.6888469 0,0.3340162 -0.09227,0.6786363 -0.277503,1.0335286 -0.162077,0.3548923 -0.486316,0.6888659 -0.97255,1.002006 -0.486234,0.2922643 -1.181104,0.5319686 -2.084111,0.7198528 -0.879851,0.187884 -2.037108,0.2821533 -3.472656,0.2821533 -0.671466,0 -1.41273,0.031423 -2.22312,0.094051 -0.787236,0.041752 -1.655178,0.1147281 -2.604492,0.2191081 L 46.450748,29.85806 c -1.435548,2.860014 -2.99836,5.584518 -4.688603,8.173144 -1.667088,2.56775 -3.461869,4.821942 -5.383651,6.763412 -1.898627,1.941469 -3.889935,3.486678 -5.973795,4.634859 -1.414002,0.764932 -2.859753,1.269265 -4.33772,1.515153 H 75.394718 V 5.4207918 Z"
       id="path596" />
    <!-- Left Block -->
	<path
       style="fill:#00ffff;stroke-width:0.3"
       d="M 5.4444652,5.4207918 V 50.944628 H 21.776285 c -0.583058,-0.09282 -1.168317,-0.220774 -1.755965,-0.38809 -1.319778,-0.375768 -2.674078,-0.960092 -4.063318,-1.753381 -1.366086,-0.814165 -2.75531,-1.847509 -4.167704,-3.100069 -1.38924,-1.273438 -2.8019198,-2.808 -4.2374678,-4.603337 -0.34731,-0.354892 -0.5902305,-0.709642 -0.7291545,-1.064535 -0.138924,-0.354892 -0.2087728,-0.741064 -0.2087728,-1.158585 0,-0.31314 0.1042564,-0.699313 0.3126424,-1.158586 0.23154,-0.459272 0.5557785,-0.897644 0.9725505,-1.315165 0.4167719,-0.438396 0.9260681,-0.803793 1.5280721,-1.096057 0.6020041,-0.31314 1.2854051,-0.469739 2.0494871,-0.469739 0.46308,0 0.891059,0.07298 1.284676,0.219108 0.393619,0.146132 0.752781,0.396484 1.076937,0.751376 1.85232,3.340162 3.681508,5.782892 5.48752,7.327718 1.829166,1.544824 3.6349,2.317171 5.417758,2.317171 1.296624,0 2.582108,-0.376044 3.855578,-1.12758 1.296624,-0.772413 2.581592,-1.878732 3.855062,-3.319177 1.27347,-1.461321 2.546968,-3.235588 3.820439,-5.323189 1.296624,-2.087602 2.593061,-4.457357 3.889685,-7.10861 L 50.132177,9.9424796 C 47.654699,9.9216026 45.605528,9.910957 43.984748,9.910957 h -3.29954 c -0.416771,0 -0.798873,-0.083622 -1.146183,-0.2506307 C 39.214869,9.4933183 38.925555,9.2845202 38.670861,9.034008 38.439321,8.7834958 38.254263,8.5017218 38.115339,8.1885815 37.976415,7.8754413 37.906566,7.5728908 37.906566,7.2806266 c 0,-0.5845284 0.254907,-1.054324 0.764295,-1.4092163 0.283635,-0.2092333 0.664016,-0.3578894 1.134298,-0.4506185 z"
       id="rect366" />
    <!-- Letter J -->
    <g
       aria-label="J"
       transform="scale(1.0531475,0.9495346)"
       id="text3739"
       style="font-family:Damion;fill:#ffffff;stroke-width:0.3">
	   <!-- Letter J -->
      <path
         d="m 44.106472,31.353819 q -2.044655,4.518029 -4.452073,8.607341 -2.374439,4.056333 -5.111639,7.123317 -2.704222,3.066983 -5.672271,4.880791 -2.968049,1.780829 -6.133967,1.780829 -1.846786,0 -3.72655,-0.59361 Q 17.130208,52.558878 15.151509,51.305701 13.205788,50.019547 11.19411,48.040848 9.2154113,46.02917 7.1707555,43.193035 6.6760807,42.632404 6.4782108,42.071772 6.2803409,41.511141 6.2803409,40.851574 q 0,-0.494674 0.2968049,-1.220197 0.3297832,-0.725523 0.9233929,-1.38509 0.5936097,-0.692544 1.451046,-1.154241 0.8574363,-0.494675 1.9457213,-0.494675 0.659566,0 1.220197,0.230849 0.560632,0.230848 1.022328,0.791479 2.638266,5.276531 5.210575,7.716927 2.605287,2.440395 5.144617,2.440395 1.846786,0 3.660594,-1.187219 1.846785,-1.220198 3.660593,-3.495702 1.813807,-2.308482 3.627615,-5.606314 1.846786,-3.297832 3.693572,-7.486078 l 9.464777,-19.6221 q -3.52868,-0.03298 -5.837162,-0.03298 -2.275504,0 -3.132941,0 -0.593609,0 -1.088284,-0.263827 -0.461696,-0.2638259 -0.824458,-0.6595658 -0.329783,-0.3957398 -0.527653,-0.8904146 -0.19787,-0.4946748 -0.19787,-0.9563712 0,-0.9233929 0.725523,-1.4840244 0.725523,-0.5936097 2.308482,-0.5936097 0.296805,0 0.59361,0.032978 0.329783,0 0.626588,0 2.440396,0 4.880791,-0.1319132 2.473374,-0.1319133 4.880791,-0.2638266 2.440396,-0.1648916 4.847813,-0.2968049 2.440396,-0.1319132 4.814835,-0.1319132 1.879764,0 3.066983,0.1319132 1.220198,0.098935 1.912743,0.3297832 0.692545,0.1978699 0.956371,0.5276531 0.263827,0.3297832 0.263827,0.725523 0,0.5276531 -0.263827,1.0882846 -0.230848,0.5606314 -0.923393,1.0553061 -0.692544,0.4616965 -1.978699,0.7585014 -1.253176,0.2968048 -3.297832,0.2968048 -0.956371,0 -2.110612,0.098935 -1.121263,0.065957 -2.473374,0.2308484 z"
         style="font-size:69px;fill:#111111;fill-opacity:.2;stroke-width:0.1"
         id="path527" />
    </g>
    <g
       aria-label="M"
       transform="matrix(0.26458333,0,0,0.26458333,15.648215,-2.2678571)"
       id="flowRoot3713"
       style="font-size:192px;line-height:1.25;font-family:Damion;-inkscape-font-specification:Damion;letter-spacing:0px;word-spacing:0px" />
    <!-- Letter MK -->
    <g
       aria-label="K"
       id="text3731"
       style="font-size:50.8px;line-height:1.25;font-family:Damionstroke-width:0.2"
       transform="translate(-56.355898,-53.445833)">
      <g
         id="g1785">
        <path
           id="path309"
           style="font-size:192px;fill:#f111111;fill-opacity:1;font-family:Damion;"
           d="m 249.72824,249.48159 c -1.625,0 -3.21875,0.4375 -4.78125,1.3125 -1.5625,0.875 -2.78125,2.28125 -3.65625,4.21875 -0.375,0.875 -1.34375,3.125 -2.90625,6.75 -1.5,3.56249 -3.43751,8.03125 -5.8125,13.40625 -2.375,5.37499 -5.09376,11.40626 -8.15625,18.09375 -3.0625,6.62499 -6.34376,13.40626 -9.84375,20.34375 -3.4375,6.93749 -7.00001,13.78126 -10.6875,20.53125 -3.6875,6.74999 -7.34376,12.875 -10.96875,18.375 -3.625,5.49999 -7.15626,10.1875 -10.59375,14.0625 -3.375,3.8125 -6.50001,6.28125 -9.375,7.40625 -2.375,0.9375 -4.21876,2.25 -5.53125,3.9375 -1.3125,1.6875 -1.96875,3.3125 -1.96875,4.875 0,1.3125 0.53125,2.40625 1.59375,3.28125 1.12499,0.9375 2.8125,1.40625 5.0625,1.40625 1.49999,0 3.21875,-0.25 5.15625,-0.75 1.93749,-0.4375 4.21875,-1.1875 6.84375,-2.25 2.99999,-1.25 6.125,-3.4375 9.375,-6.5625 3.31249,-3.1875 6.65625,-7.00001 10.03125,-11.4375 3.37499,-4.5 6.75,-9.46876 10.125,-14.90625 3.37499,-5.5 6.65625,-11.18751 9.84375,-17.0625 3.18749,-5.9375 6.25,-11.93751 9.1875,-18 2.93749,-6.0625 5.65625,-11.90626 8.15625,-17.53125 -0.0625,2 -0.0937,4.03125 -0.0937,6.09375 v 6.1875 c 0,8.74999 0.0937,17.65626 0.28125,26.71875 0.1875,8.99999 0.46875,17.93751 0.84375,26.8125 -0.12503,0.3125 -0.21875,0.625 -0.28125,0.9375 v 0.84375 c 0,1.5 0.5,2.625 1.5,3.375 1.0625,0.75 2.46875,1.125 4.21875,1.125 1.3125,0 2.65625,-0.375 4.03125,-1.125 1.375,-0.8125 2.75,-1.875 4.125,-3.1875 1.4375,-1.3125 2.875,-2.84375 4.3125,-4.59375 1.4375,-1.75 2.875,-3.59375 4.3125,-5.53125 1.5625,-2.875 3.59375,-6.65626 6.09375,-11.34375 2.56249,-4.6875 5.34375,-9.90626 8.34375,-15.65625 3.06249,-5.8125 6.28125,-11.93751 9.65625,-18.375 3.37499,-6.43749 6.71875,-12.84376 10.03125,-19.21875 -0.9375,6.81249 -1.90625,14.12501 -2.90625,21.9375 -0.9375,7.81249 -1.875,15.59376 -2.8125,23.34375 -0.9375,7.68749 -1.8125,15.06251 -2.625,22.125 -0.8125,7.06249 -1.5,13.28125 -2.0625,18.65625 0,1.85193 0.008,3.3692 0.17187,4.59766 -0.0392,0.37252 -0.0644,0.74522 -0.0644,1.11914 0,1.68749 0.28125,3.37501 0.84375,5.0625 0.5625,1.62502 1.28125,3.12501 2.15625,4.5 0.875,1.37499 1.78125,2.56248 2.71875,3.5625 1,0.99998 1.9375,1.68749 2.8125,2.0625 1.4375,0.87501 2.9375,1.53125 4.5,1.96875 1.625,0.43749 3.28125,0.65625 4.96875,0.65625 4.8125,0 9.50001,-1.40626 14.0625,-4.21875 4.56251,-2.75001 8.93751,-6.50002 13.125,-11.25 4.18749,-4.75 8.15626,-10.25001 11.90625,-16.5 3.81251,-6.25 7.375,-12.81251 10.6875,-19.6875 3.37499,4.99999 6.1875,9.1875 8.4375,12.5625 2.25,3.37499 4.12501,6.28125 5.625,8.71875 1.56251,2.37499 2.84376,4.40625 3.84375,6.09375 1.0625,1.6875 2.125,3.34375 3.1875,4.96875 1.0625,1.56249 2.21874,3.25 3.46875,5.0625 1.3125,1.81248 2.93752,3.99998 4.875,6.5625 1.3125,2.25 2.87499,4.09377 4.6875,5.53125 1.875,1.50001 3.84376,2.25 5.90625,2.25 0.75001,0 1.65625,-0.21874 2.71875,-0.65625 1.12499,-0.37501 2.18749,-0.96876 3.1875,-1.78125 1.0625,-0.8125 1.96877,-1.84376 2.71875,-3.09375 0.75001,-1.24999 1.125,-2.71875 1.125,-4.40625 0,-1.00002 -0.18749,-2.09375 -0.5625,-3.28125 -0.31249,-1.24999 -0.875,-2.50001 -1.6875,-3.75 -2.375,-3.6875 -4.90626,-7.34376 -7.59375,-10.96875 -2.625,-3.625 -5.37499,-7.31251 -8.25,-11.0625 -2.81249,-3.8125 -5.78126,-7.71876 -8.90625,-11.71875 -3.0625,-4 -6.25,-8.21876 -9.5625,-12.65625 2.31249,-1.75 5.15624,-4.03126 8.53125,-6.84375 3.43748,-2.8125 7.21875,-5.96876 11.34375,-9.46875 4.18751,-3.5 8.62501,-7.21876 13.3125,-11.15625 4.68749,-3.9375 9.43751,-7.84376 14.25,-11.71875 4.87501,-3.9375 9.71876,-7.75001 14.53125,-11.4375 4.81249,-3.6875 9.40625,-7.06251 13.78125,-10.125 1.0625,-0.6875 1.84377,-1.5 2.34375,-2.4375 0.56252,-1 0.84375,-2.03126 0.84375,-3.09376 0,-0.4375 -0.12505,-0.99999 -0.375,-1.6875 -0.18751,-0.74999 -0.53127,-1.46874 -1.03125,-2.15625 -0.43752,-0.68749 -1,-1.28124 -1.6875,-1.78125 -0.68749,-0.49999 -1.5,-0.75 -2.4375,-0.75 -0.87501,0 -2.06251,0.31251 -3.5625,0.9375 -1.49999,0.625 -3.53126,1.71876 -6.09375,3.28125 -2.5,1.5 -5.59374,3.59376 -9.28125,6.28126 -3.68748,2.62499 -8.15624,6 -13.40625,10.125 -5.1875,4.06249 -11.25001,8.9375 -18.1875,14.625 -6.87498,5.68749 -14.78126,12.34375 -23.71875,19.96875 1.93749,-5.375 3.68749,-10.56251 5.25,-15.5625 1.56251,-5 2.90626,-9.59376 4.03125,-13.78125 1.12501,-4.1875 2.00002,-7.87501 2.625,-11.0625 0.68755,-3.25 1.12504,-5.78126 1.3125,-7.59376 0.0625,-0.75 0.0937,-1.46875 0.0937,-2.15625 0.0625,-0.6875 0.0937,-1.34375 0.0937,-1.96875 0,-3.87499 -0.62498,-6.53125 -1.875,-7.96875 -1.24999,-1.49999 -3.0625,-2.25 -5.4375,-2.25 -1.62499,0 -3.15625,0.43751 -4.59375,1.3125 -1.37499,0.875 -2.34376,2.28126 -2.90625,4.21875 -0.18751,0.68751 -0.6875,2.34376 -1.5,4.96875 -0.8125,2.625 -1.875,5.96876 -3.1875,10.03126 -1.24999,3.99999 -2.75,8.5625 -4.5,13.6875 -1.68751,5.12499 -3.56251,10.5 -5.625,16.125 -2,5.62499 -4.125,11.375 -6.375,17.25 -2.25,5.87499 -4.59376,11.5625 -7.03125,17.0625 -2.375,5.49999 -4.8125,10.6875 -7.3125,15.5625 -2.5,4.81249 -4.96876,9.03125 -7.40625,12.65625 -2.43749,3.62499 -4.84375,6.5 -7.21875,8.625 -2.375,2.0625 -4.625,3.09375 -6.75,3.09375 -1.125,0 -2.125,-0.5625 -3,-1.6875 -0.50116,-0.64435 -0.96855,-1.33419 -1.4082,-2.06055 0.0429,-0.89556 -0.0102,-1.83138 0.0879,-2.8125 0.1875,-1.9375 0.16406,-3.37891 0.16406,-5.25391 0.0486,-5.17568 0.46741,-9.54282 1.04883,-15.37109 0.4375,-4.5625 0.96875,-9.65626 1.59375,-15.28125 0.6875,-5.625 1.40625,-11.40626 2.15625,-17.34375 0.75,-6 1.5,-12.03126 2.25,-18.09375 0.75,-6.0625 1.4375,-11.81251 2.0625,-17.25 0.6875,-5.5 1.28125,-10.53126 1.78125,-15.09375 0.5,-4.5625 0.875,-8.37501 1.125,-11.4375 0,-3 -0.4375,-5.4375 -1.3125,-7.3125 -0.875,-1.875 -2.0625,-2.8125 -3.5625,-2.8125 -0.1875,0 -0.375,0.0312 -0.5625,0.0937 h -0.5625 -0.65625 c -1.75,0 -4.09376,1.8125 -7.03125,5.4375 -2.9375,3.56249 -6.56251,8.87501 -10.875,15.9375 -4.25,6.99999 -9.28126,15.71876 -15.09375,26.15625 -5.75,10.37499 -12.37501,22.37501 -19.875,36 0,-5.875 0.0625,-11.18751 0.1875,-15.9375 0.18755,-4.75 0.28125,-9.09376 0.28125,-13.03125 0,-5.5 -0.0625,-10.34376 -0.1875,-14.53125 -0.0625,-4.25 -0.21875,-8.18751 -0.46875,-11.8125 -0.25,-3.6875 -0.5625,-7.25001 -0.9375,-10.6875 -0.3125,-3.5 -0.71875,-7.21876 -1.21875,-11.15625 0,-3.125 -0.4375,-5.28125 -1.3125,-6.46875 -0.875,-1.25 -2.43751,-1.875 -4.6875,-1.875 z"
           transform="matrix(0.26458333,0,0,0.26458333,15.648215,-2.2678571)" />
      </g>
    </g>
  </g>
</svg>
